<svg width="661" height="138" viewBox="0 0 661 138" fill="none" xmlns="http://www.w3.org/2000/svg">
<path opacity="0.996" fill-rule="evenodd" clip-rule="evenodd" d="M65.9604 4.56008C82.811 4.05784 98.0093 8.71862 111.555 18.5425C119.233 14.0054 126.832 9.34461 134.352 4.56008C134.555 4.76272 134.758 4.96537 134.96 5.16801C135.366 28.472 135.366 51.776 134.96 75.0799C130.115 107.281 111.776 126.633 79.9428 133.137C52.2237 135.941 30.6422 125.91 15.1983 103.045C1.3597 77.032 2.98085 52.1067 20.0617 28.2693C32.209 14.1414 47.5085 6.23833 65.9604 4.56008ZM69.608 28.2693C88.3553 29.3756 101.426 38.4945 108.819 55.6262C109.427 58.4632 110.035 61.3 110.643 64.1372C111.049 81.7671 111.049 99.3971 110.643 117.027C104.096 112.548 97.4086 108.293 90.5816 104.261C74.0903 112.537 58.588 111.018 44.075 99.701C29.0157 84.5837 26.28 67.4607 35.8679 48.331C43.897 36.2603 55.1437 29.5731 69.608 28.2693Z" fill="#3D5AB2"/>
<path opacity="0.994" fill-rule="evenodd" clip-rule="evenodd" d="M67.1761 48.331C81.2661 48.239 89.3716 55.1289 91.4933 69.0006C89.4671 83.49 81.1585 90.2787 66.5682 89.3662C56.3188 86.6111 50.6449 79.9239 49.5461 69.3046C50.8119 58.3274 56.6885 51.3362 67.1761 48.331Z" fill="#3C5AB1"/>
<path d="M173.957 34.2969H220.539V46.4062H188.605V63.5938H217.512V75.7031H188.605V105H173.957V34.2969ZM244.855 105H230.207V34.2969H244.855V105ZM254.035 34.2969H311.945V46.4062H290.266V105H275.715V46.4062H254.035V34.2969ZM348.664 81.6602H316.438V70.1367H348.664V81.6602ZM384.504 106.074C379.198 106.074 374.576 104.919 370.637 102.607C366.73 100.296 363.736 97.0736 361.652 92.9395C359.569 88.8053 358.527 84.0365 358.527 78.6328C358.527 73.2292 359.569 68.4766 361.652 64.375C363.768 60.2409 366.779 57.0345 370.686 54.7559C374.624 52.4447 379.23 51.2891 384.504 51.2891C389.029 51.2891 393.033 52.1191 396.516 53.7793C399.999 55.4395 402.733 57.7995 404.719 60.8594C406.737 63.8867 407.844 67.4023 408.039 71.4062H394.465C394.009 68.7044 392.935 66.556 391.242 64.9609C389.549 63.3333 387.368 62.5195 384.699 62.5195C382.388 62.5195 380.354 63.1543 378.596 64.4238C376.87 65.6608 375.536 67.4837 374.592 69.8926C373.648 72.3014 373.176 75.1497 373.176 78.4375C373.176 81.8229 373.648 84.7201 374.592 87.1289C375.536 89.5378 376.87 91.377 378.596 92.6465C380.321 93.916 382.355 94.5508 384.699 94.5508C387.271 94.5508 389.436 93.7858 391.193 92.2559C392.951 90.7259 394.042 88.5612 394.465 85.7617H408.039C407.811 89.7656 406.721 93.2975 404.768 96.3574C402.814 99.4173 400.096 101.81 396.613 103.535C393.163 105.228 389.126 106.074 384.504 106.074ZM414.484 90.1562C414.484 84.6875 416.324 80.6836 420.002 78.1445C423.68 75.6055 428.417 74.1732 434.211 73.8477C437.792 73.6198 442.186 73.3919 447.395 73.1641V68.8672C447.329 66.6536 446.564 64.9284 445.1 63.6914C443.635 62.4544 441.568 61.8359 438.898 61.8359C436.49 61.8359 434.52 62.3568 432.99 63.3984C431.46 64.4401 430.5 65.8724 430.109 67.6953H416.34C416.633 64.5703 417.707 61.7708 419.562 59.2969C421.451 56.8229 424.071 54.8698 427.424 53.4375C430.777 52.0052 434.732 51.2891 439.289 51.2891C443.326 51.2891 447.036 51.9238 450.422 53.1934C453.84 54.4629 456.574 56.4486 458.625 59.1504C460.708 61.8197 461.75 65.1888 461.75 69.2578V105H448.078V97.6758H447.688C446.288 100.247 444.286 102.282 441.682 103.779C439.11 105.244 435.936 105.977 432.16 105.977C428.71 105.977 425.65 105.391 422.98 104.219C420.344 103.014 418.26 101.224 416.73 98.8477C415.233 96.4714 414.484 93.5742 414.484 90.1562ZM428.352 89.7656C428.352 91.7513 429.068 93.2975 430.5 94.4043C431.965 95.4785 433.885 96.0156 436.262 96.0156C438.41 96.0156 440.331 95.5762 442.023 94.6973C443.749 93.8184 445.083 92.6139 446.027 91.084C446.971 89.554 447.427 87.8776 447.395 86.0547V82.1973C445.865 82.2298 443.977 82.3112 441.73 82.4414C439.484 82.5716 437.759 82.7018 436.555 82.832C434.016 83.0924 432.014 83.8086 430.549 84.9805C429.084 86.1523 428.352 87.7474 428.352 89.7656ZM472.785 51.9727H486.75V61.1523H487.336C488.28 57.9297 489.891 55.472 492.17 53.7793C494.449 52.054 497.102 51.1914 500.129 51.1914C501.789 51.1914 503.319 51.3542 504.719 51.6797V64.5703C504.003 64.375 503.042 64.196 501.838 64.0332C500.633 63.8704 499.543 63.7891 498.566 63.7891C496.418 63.7891 494.481 64.2611 492.756 65.2051C491.031 66.1491 489.68 67.4674 488.703 69.1602C487.727 70.8203 487.238 72.7083 487.238 74.8242V105H472.785V51.9727ZM534.113 106.074C528.742 106.074 524.087 104.967 520.148 102.754C516.242 100.54 513.231 97.3828 511.115 93.2812C508.999 89.1471 507.941 84.2969 507.941 78.7305C507.941 73.2943 508.983 68.5091 511.066 64.375C513.182 60.2083 516.177 56.9857 520.051 54.707C523.924 52.4284 528.417 51.2891 533.527 51.2891C538.28 51.2891 542.528 52.2982 546.271 54.3164C550.048 56.3021 553.01 59.3132 555.158 63.3496C557.339 67.3861 558.43 72.3177 558.43 78.1445V82.2461H522.199C522.199 84.8828 522.688 87.1777 523.664 89.1309C524.673 91.084 526.089 92.5977 527.912 93.6719C529.768 94.7135 531.932 95.2344 534.406 95.2344C536.783 95.2344 538.833 94.7624 540.559 93.8184C542.284 92.8418 543.521 91.5234 544.27 89.8633H558.039C557.355 93.1185 555.956 95.9668 553.84 98.4082C551.724 100.85 548.973 102.738 545.588 104.072C542.235 105.407 538.41 106.074 534.113 106.074ZM544.758 73.1641C544.758 71.0482 544.286 69.1602 543.342 67.5C542.43 65.8073 541.145 64.4889 539.484 63.5449C537.824 62.6009 535.936 62.1289 533.82 62.1289C531.672 62.1289 529.719 62.6172 527.961 63.5938C526.236 64.5703 524.852 65.9049 523.811 67.5977C522.801 69.2904 522.264 71.1458 522.199 73.1641H544.758ZM591.535 106.074C586.164 106.074 581.509 104.967 577.57 102.754C573.664 100.54 570.653 97.3828 568.537 93.2812C566.421 89.1471 565.363 84.2969 565.363 78.7305C565.363 73.2943 566.405 68.5091 568.488 64.375C570.604 60.2083 573.599 56.9857 577.473 54.707C581.346 52.4284 585.839 51.2891 590.949 51.2891C595.702 51.2891 599.95 52.2982 603.693 54.3164C607.469 56.3021 610.432 59.3132 612.58 63.3496C614.761 67.3861 615.852 72.3177 615.852 78.1445V82.2461H579.621C579.621 84.8828 580.109 87.1777 581.086 89.1309C582.095 91.084 583.511 92.5977 585.334 93.6719C587.189 94.7135 589.354 95.2344 591.828 95.2344C594.204 95.2344 596.255 94.7624 597.98 93.8184C599.706 92.8418 600.943 91.5234 601.691 89.8633H615.461C614.777 93.1185 613.378 95.9668 611.262 98.4082C609.146 100.85 606.395 102.738 603.01 104.072C599.657 105.407 595.832 106.074 591.535 106.074ZM602.18 73.1641C602.18 71.0482 601.708 69.1602 600.764 67.5C599.852 65.8073 598.566 64.4889 596.906 63.5449C595.246 62.6009 593.358 62.1289 591.242 62.1289C589.094 62.1289 587.141 62.6172 585.383 63.5938C583.658 64.5703 582.274 65.9049 581.232 67.5977C580.223 69.2904 579.686 71.1458 579.621 73.1641H602.18ZM624.934 51.9727H638.898V61.1523H639.484C640.428 57.9297 642.04 55.472 644.318 53.7793C646.597 52.054 649.25 51.1914 652.277 51.1914C653.938 51.1914 655.467 51.3542 656.867 51.6797V64.5703C656.151 64.375 655.191 64.196 653.986 64.0332C652.782 63.8704 651.691 63.7891 650.715 63.7891C648.566 63.7891 646.63 64.2611 644.904 65.2051C643.179 66.1491 641.828 67.4674 640.852 69.1602C639.875 70.8203 639.387 72.7083 639.387 74.8242V105H624.934V51.9727Z" fill="black"/>
</svg>
