<?xml version="1.0" encoding="UTF-8"?>
<!DOCTYPE svg PUBLIC "-//W3C//DTD SVG 1.1//EN" "http://www.w3.org/Graphics/SVG/1.1/DTD/svg11.dtd">
<svg xmlns="http://www.w3.org/2000/svg" version="1.1" width="236px" height="227px" style="shape-rendering:geometricPrecision; text-rendering:geometricPrecision; image-rendering:optimizeQuality; fill-rule:evenodd; clip-rule:evenodd" xmlns:xlink="http://www.w3.org/1999/xlink">
<g><path style="opacity:0.996" fill="#3d5ab2" d="M 108.5,7.5 C 136.218,6.67386 161.218,14.3405 183.5,30.5C 196.129,23.0369 208.629,15.3702 221,7.5C 221.333,7.83333 221.667,8.16667 222,8.5C 222.667,46.8333 222.667,85.1667 222,123.5C 214.03,176.468 183.863,208.301 131.5,219C 85.904,223.612 50.404,207.112 25,169.5C 2.23649,126.711 4.90316,85.7108 33,46.5C 52.9813,23.2606 78.148,10.2606 108.5,7.5 Z M 114.5,46.5 C 145.338,48.3197 166.838,63.3197 179,91.5C 180,96.1667 181,100.833 182,105.5C 182.667,134.5 182.667,163.5 182,192.5C 171.23,185.133 160.23,178.133 149,171.5C 121.873,185.115 96.3729,182.615 72.5,164C 47.7286,139.133 43.2286,110.967 59,79.5C 72.2073,59.6446 90.7073,48.6446 114.5,46.5 Z"/></g>
<g><path style="opacity:0.994" fill="#3c5ab1" d="M 110.5,79.5 C 133.677,79.3487 147.01,90.682 150.5,113.5C 147.167,137.334 133.5,148.501 109.5,147C 92.6406,142.468 83.3073,131.468 81.5,114C 83.582,95.9433 93.2486,84.4433 110.5,79.5 Z"/></g>
</svg>
